<svg width="24" height="24" viewBox="0 0 24 24" fill="none" xmlns="http://www.w3.org/2000/svg">
<path d="M9 6H13.7333C15.2268 6 15.9735 6 16.544 6.29065C17.0457 6.54631 17.4537 6.95426 17.7094 7.45603C18 8.02646 18 8.77319 18 10.2667V15M8.13333 18H13.5333C14.2801 18 14.6534 18 14.9387 17.8547C15.1895 17.7268 15.3935 17.5229 15.5213 17.272C15.6667 16.9868 15.6667 16.6134 15.6667 15.8667V10.4667C15.6667 9.71993 15.6667 9.34656 15.5213 9.06135C15.3935 8.81046 15.1895 8.60649 14.9387 8.47866C14.6534 8.33333 14.2801 8.33333 13.5333 8.33333H8.13333C7.3866 8.33333 7.01323 8.33333 6.72801 8.47866C6.47713 8.60649 6.27316 8.81046 6.14532 9.06135C6 9.34656 6 9.71993 6 10.4667V15.8667C6 16.6134 6 16.9868 6.14532 17.272C6.27316 17.5229 6.47713 17.7268 6.72801 17.8547C7.01323 18 7.3866 18 8.13333 18Z" stroke="#535862" stroke-linecap="round" stroke-linejoin="round"/>
</svg>
