<svg xmlns="http://www.w3.org/2000/svg" width="16" height="16" viewBox="0 0 16 16" fill="none">
  <path d="M11.3334 4.6665H8.66671V5.99984H11.3334C12.4334 5.99984 13.3334 6.89984 13.3334 7.99984C13.3334 9.09984 12.4334 9.99984 11.3334 9.99984H8.66671V11.3332H11.3334C13.1734 11.3332 14.6667 9.83984 14.6667 7.99984C14.6667 6.15984 13.1734 4.6665 11.3334 4.6665ZM7.33337 9.99984H4.66671C3.56671 9.99984 2.66671 9.09984 2.66671 7.99984C2.66671 6.89984 3.56671 5.99984 4.66671 5.99984H7.33337V4.6665H4.66671C2.82671 4.6665 1.33337 6.15984 1.33337 7.99984C1.33337 9.83984 2.82671 11.3332 4.66671 11.3332H7.33337V9.99984ZM5.33337 7.33317H10.6667V8.6665H5.33337V7.33317Z" fill="#A1A1A1"/>
</svg>