<svg width="16" height="16" viewBox="0 0 16 16" fill="none" xmlns="http://www.w3.org/2000/svg">
<mask id="mask0_11824_20768" style="mask-type:alpha" maskUnits="userSpaceOnUse" x="0" y="0" width="16" height="16">
<rect width="16" height="16" fill="#D9D9D9"/>
</mask>
<g mask="url(#mask0_11824_20768)">
<path d="M2.28303 13.6667C2.17003 13.6667 2.06853 13.639 1.97853 13.5838C1.88853 13.5286 1.81858 13.4558 1.7687 13.3653C1.7167 13.2755 1.68808 13.1783 1.68286 13.0737C1.67764 12.969 1.70586 12.8653 1.76753 12.7627L7.4747 2.90399C7.53647 2.80133 7.6137 2.72544 7.70636 2.67633C7.79914 2.62722 7.89681 2.60266 7.99936 2.60266C8.10192 2.60266 8.19958 2.62722 8.29236 2.67633C8.38503 2.72544 8.46225 2.80133 8.52403 2.90399L14.2312 12.7627C14.2929 12.8653 14.3211 12.969 14.3159 13.0737C14.3106 13.1783 14.282 13.2755 14.23 13.3653C14.1801 13.4558 14.1102 13.5286 14.0202 13.5838C13.9302 13.639 13.8287 13.6667 13.7157 13.6667H2.28303ZM7.99936 11.8718C8.15192 11.8718 8.27981 11.8202 8.38303 11.717C8.48625 11.6138 8.53786 11.4859 8.53786 11.3333C8.53786 11.1808 8.48625 11.0529 8.38303 10.9497C8.27981 10.8464 8.15192 10.7948 7.99936 10.7948C7.84681 10.7948 7.71892 10.8464 7.6157 10.9497C7.51247 11.0529 7.46086 11.1808 7.46086 11.3333C7.46086 11.4859 7.51247 11.6138 7.6157 11.717C7.71892 11.8202 7.84681 11.8718 7.99936 11.8718ZM7.99953 10.1282C8.14131 10.1282 8.26003 10.0803 8.3557 9.98449C8.45147 9.88861 8.49936 9.76983 8.49936 9.62816V7.29483C8.49936 7.15316 8.45142 7.03444 8.35553 6.93866C8.25964 6.84277 8.14086 6.79483 7.9992 6.79483C7.85742 6.79483 7.7387 6.84277 7.64303 6.93866C7.54725 7.03444 7.49936 7.15316 7.49936 7.29483V9.62816C7.49936 9.76983 7.54731 9.88861 7.6432 9.98449C7.73908 10.0803 7.85786 10.1282 7.99953 10.1282Z" fill="#F44649"/>
</g>
</svg>
