<svg width="24" height="24" viewBox="0 0 24 24" fill="none" xmlns="http://www.w3.org/2000/svg">
<path d="M11.1668 12.8332H5.83325C5.59725 12.8332 5.39933 12.7532 5.2395 12.593C5.07983 12.4327 5 12.234 5 11.997C5 11.7602 5.07983 11.5626 5.2395 11.4043C5.39933 11.2459 5.59725 11.1667 5.83325 11.1667H11.1668V5.83325C11.1668 5.59725 11.2468 5.39933 11.407 5.2395C11.5673 5.07983 11.766 5 12.003 5C12.2398 5 12.4374 5.07983 12.5957 5.2395C12.7541 5.39933 12.8333 5.59725 12.8333 5.83325V11.1667H18.1667C18.4028 11.1667 18.6007 11.2468 18.7605 11.407C18.9202 11.5673 19 11.766 19 12.003C19 12.2398 18.9202 12.4374 18.7605 12.5957C18.6007 12.7541 18.4028 12.8332 18.1667 12.8332H12.8333V18.1667C12.8333 18.4028 12.7532 18.6007 12.593 18.7605C12.4327 18.9202 12.234 19 11.997 19C11.7602 19 11.5626 18.9202 11.4043 18.7605C11.2459 18.6007 11.1668 18.4028 11.1668 18.1667V12.8332Z" fill="#A1A1A1"/>
</svg>
