<svg width="120" height="120" viewBox="0 0 120 120" fill="none" xmlns="http://www.w3.org/2000/svg">
<mask id="path-1-inside-1_13439_125917" fill="white">
<path d="M47.7349 18.3633C41.9551 18.3602 36.3043 20.0713 31.497 23.2801C26.6898 26.4889 22.9422 31.0513 20.7283 36.3902C18.5143 41.7291 17.9334 47.6047 19.0591 53.2738C20.1847 58.9429 22.9664 64.1508 27.0522 68.2389C31.138 72.3269 36.3445 75.1113 42.013 76.2401C47.6815 77.3688 53.5574 76.7911 58.8975 74.58C64.2376 72.3689 68.802 68.6237 72.0134 63.8182C75.2248 59.0127 76.9389 53.3628 76.9389 47.583C76.9389 39.8362 73.8626 32.4064 68.3862 26.9271C62.9099 21.4478 55.4817 18.3674 47.7349 18.3633Z"/>
<path d="M75.4307 72.784L73.0113 75.3149C71.9267 76.4494 71.9672 78.2483 73.1017 79.3329L94.0982 99.4046C95.2328 100.489 97.0317 100.449 98.1163 99.3142L100.536 96.7832C101.62 95.6487 101.58 93.8498 100.445 92.7652L79.4487 72.6935C78.3142 71.6089 76.5153 71.6494 75.4307 72.784Z"/>
</mask>
<path d="M75.4307 72.784L73.0113 75.3149C71.9267 76.4494 71.9672 78.2483 73.1017 79.3329L94.0982 99.4046C95.2328 100.489 97.0317 100.449 98.1163 99.3142L100.536 96.7832C101.62 95.6487 101.58 93.8498 100.445 92.7652L79.4487 72.6935C78.3142 71.6089 76.5153 71.6494 75.4307 72.784Z" fill="#858585"/>
<path d="M47.7349 18.3633L47.7355 17.3633L47.7349 18.3633ZM76.9389 47.583H75.9389H76.9389ZM75.4307 72.784L74.7079 72.093L75.4307 72.784ZM73.0113 75.3149L73.7341 76.0059L73.0113 75.3149ZM73.1017 79.3329L73.7927 78.6101L73.1017 79.3329ZM94.0982 99.4046L93.4072 100.127L94.0982 99.4046ZM98.1163 99.3142L98.8391 100.005L98.1163 99.3142ZM100.536 96.7832L99.8129 96.0922L100.536 96.7832ZM100.445 92.7652L99.7542 93.488L100.445 92.7652ZM79.4487 72.6935L80.1397 71.9706L79.4487 72.6935ZM47.7349 18.3633L47.7355 17.3633C41.7579 17.3601 35.9136 19.1297 30.9419 22.4483L31.497 23.2801L32.0522 24.1118C36.6949 21.0128 42.1524 19.3603 47.7344 19.3633L47.7349 18.3633ZM31.497 23.2801L30.9419 22.4483C25.9701 25.767 22.0943 30.4855 19.8045 36.0071L20.7283 36.3902L21.652 36.7733C23.7902 31.6171 27.4095 27.2108 32.0522 24.1118L31.497 23.2801ZM20.7283 36.3902L19.8045 36.0071C17.5148 41.5288 16.914 47.6055 18.0782 53.4686L19.0591 53.2738L20.0399 53.0791C18.9528 47.604 19.5138 41.9295 21.652 36.7733L20.7283 36.3902ZM19.0591 53.2738L18.0782 53.4686C19.2424 59.3317 22.1193 64.7179 26.3449 68.9458L27.0522 68.2389L27.7595 67.5319C23.8135 63.5838 21.1271 58.5541 20.0399 53.0791L19.0591 53.2738ZM27.0522 68.2389L26.3449 68.9458C30.5706 73.1737 35.9552 76.0535 41.8177 77.2208L42.013 76.2401L42.2083 75.2593C36.7338 74.1692 31.7055 71.4801 27.7595 67.5319L27.0522 68.2389ZM42.013 76.2401L41.8177 77.2208C47.6802 78.3882 53.7572 77.7907 59.28 75.5039L58.8975 74.58L58.5149 73.656C53.3576 75.7915 47.6827 76.3494 42.2083 75.2593L42.013 76.2401ZM58.8975 74.58L59.28 75.5039C64.8029 73.2171 69.5235 69.3438 72.8448 64.3738L72.0134 63.8182L71.182 63.2626C68.0805 67.9036 63.6723 71.5206 58.5149 73.656L58.8975 74.58ZM72.0134 63.8182L72.8448 64.3738C76.1661 59.4039 77.9389 53.5606 77.9389 47.583H76.9389H75.9389C75.9389 53.165 74.2835 58.6215 71.182 63.2626L72.0134 63.8182ZM76.9389 47.583H77.9389C77.9389 39.571 74.7573 31.887 69.0935 26.2202L68.3862 26.9271L67.6789 27.634C72.9679 32.9258 75.9389 40.1013 75.9389 47.583H76.9389ZM68.3862 26.9271L69.0935 26.2202C63.4297 20.5533 55.7474 17.3676 47.7355 17.3633L47.7349 18.3633L47.7344 19.3633C55.2161 19.3673 62.39 22.3422 67.6789 27.634L68.3862 26.9271ZM75.4307 72.784L74.7079 72.093L72.2884 74.6239L73.0113 75.3149L73.7341 76.0059L76.1536 73.475L75.4307 72.784ZM73.0113 75.3149L72.2884 74.6239C70.8222 76.1576 70.877 78.5896 72.4107 80.0558L73.1017 79.3329L73.7927 78.6101C73.0574 77.9071 73.0312 76.7412 73.7341 76.0059L73.0113 75.3149ZM73.1017 79.3329L72.4107 80.0558L93.4072 100.127L94.0982 99.4046L94.7893 98.6818L73.7927 78.6101L73.1017 79.3329ZM94.0982 99.4046L93.4072 100.127C94.941 101.594 97.3729 101.539 98.8391 100.005L98.1163 99.3142L97.3934 98.6231C96.6905 99.3585 95.5246 99.3847 94.7893 98.6818L94.0982 99.4046ZM98.1163 99.3142L98.8391 100.005L101.259 97.4742L100.536 96.7832L99.8129 96.0922L97.3934 98.6231L98.1163 99.3142ZM100.536 96.7832L101.259 97.4742C102.725 95.9405 102.67 93.5085 101.136 92.0424L100.445 92.7652L99.7542 93.488C100.49 94.191 100.516 95.3569 99.8129 96.0922L100.536 96.7832ZM100.445 92.7652L101.136 92.0424L80.1397 71.9706L79.4487 72.6935L78.7577 73.4163L99.7542 93.488L100.445 92.7652ZM79.4487 72.6935L80.1397 71.9706C78.606 70.5044 76.1741 70.5592 74.7079 72.093L75.4307 72.784L76.1536 73.475C76.8565 72.7397 78.0224 72.7134 78.7577 73.4163L79.4487 72.6935Z" fill="#383838" mask="url(#path-1-inside-1_13439_125917)"/>
</svg>
